<svg width="16" height="16" viewBox="0 0 16 16" fill="none" xmlns="http://www.w3.org/2000/svg">
<path d="M5.75001 7.99999H4.25001C4.05109 7.99999 3.86033 8.07901 3.71968 8.21966C3.57902 8.36031 3.50001 8.55108 3.50001 8.74999C3.50001 8.9489 3.57902 9.13967 3.71968 9.28032C3.86033 9.42097 4.05109 9.49999 4.25001 9.49999H5.75001C5.94892 9.49999 6.13968 9.42097 6.28034 9.28032C6.42099 9.13967 6.50001 8.9489 6.50001 8.74999C6.50001 8.55108 6.42099 8.36031 6.28034 8.21966C6.13968 8.07901 5.94892 7.99999 5.75001 7.99999ZM5.00001 6.49999H8.00001C8.19892 6.49999 8.38968 6.42097 8.53034 6.28032C8.67099 6.13967 8.75001 5.9489 8.75001 5.74999C8.75001 5.55108 8.67099 5.36031 8.53034 5.21966C8.38968 5.07901 8.19892 4.99999 8.00001 4.99999H5.00001C4.80109 4.99999 4.61033 5.07901 4.46968 5.21966C4.32902 5.36031 4.25001 5.55108 4.25001 5.74999C4.25001 5.9489 4.32902 6.13967 4.46968 6.28032C4.61033 6.42097 4.80109 6.49999 5.00001 6.49999ZM5.75001 11H4.25001C4.05109 11 3.86033 11.079 3.71968 11.2197C3.57902 11.3603 3.50001 11.5511 3.50001 11.75C3.50001 11.9489 3.57902 12.1397 3.71968 12.2803C3.86033 12.421 4.05109 12.5 4.25001 12.5H5.75001C5.94892 12.5 6.13968 12.421 6.28034 12.2803C6.42099 12.1397 6.50001 11.9489 6.50001 11.75C6.50001 11.5511 6.42099 11.3603 6.28034 11.2197C6.13968 11.079 5.94892 11 5.75001 11ZM14.75 7.99999H12.5V1.24999C12.5005 1.11783 12.4661 0.987883 12.4003 0.8733C12.3344 0.758716 12.2395 0.663569 12.125 0.59749C12.011 0.531664 11.8817 0.497009 11.75 0.497009C11.6184 0.497009 11.489 0.531664 11.375 0.59749L9.12501 1.88749L6.87501 0.59749C6.76099 0.531664 6.63166 0.497009 6.50001 0.497009C6.36835 0.497009 6.23902 0.531664 6.12501 0.59749L3.87501 1.88749L1.62501 0.59749C1.51099 0.531664 1.38166 0.497009 1.25001 0.497009C1.11835 0.497009 0.98902 0.531664 0.875006 0.59749C0.760553 0.663569 0.665592 0.758716 0.59974 0.8733C0.533887 0.987883 0.499481 1.11783 0.500006 1.24999V13.25C0.500006 13.8467 0.737059 14.419 1.15902 14.841C1.58097 15.2629 2.15327 15.5 2.75001 15.5H13.25C13.8467 15.5 14.419 15.2629 14.841 14.841C15.263 14.419 15.5 13.8467 15.5 13.25V8.74999C15.5 8.55108 15.421 8.36031 15.2803 8.21966C15.1397 8.07901 14.9489 7.99999 14.75 7.99999ZM2.75001 14C2.55109 14 2.36033 13.921 2.21968 13.7803C2.07902 13.6397 2.00001 13.4489 2.00001 13.25V2.54749L3.50001 3.40249C3.61576 3.46295 3.74441 3.49452 3.87501 3.49452C4.0056 3.49452 4.13425 3.46295 4.25001 3.40249L6.50001 2.11249L8.75001 3.40249C8.86576 3.46295 8.99441 3.49452 9.12501 3.49452C9.2556 3.49452 9.38425 3.46295 9.50001 3.40249L11 2.54749V13.25C11.002 13.5058 11.0477 13.7595 11.135 14H2.75001ZM14 13.25C14 13.4489 13.921 13.6397 13.7803 13.7803C13.6397 13.921 13.4489 14 13.25 14C13.0511 14 12.8603 13.921 12.7197 13.7803C12.579 13.6397 12.5 13.4489 12.5 13.25V9.49999H14V13.25ZM9.17001 11.1275C9.1282 11.0991 9.0828 11.0764 9.03501 11.06C8.99035 11.0372 8.94218 11.0219 8.89251 11.015C8.77201 10.9909 8.64744 10.9967 8.52974 11.032C8.41204 11.0673 8.30482 11.131 8.21751 11.2175C8.08046 11.3612 8.00277 11.5514 8.00001 11.75C7.99881 11.8475 8.01664 11.9443 8.05251 12.035C8.09327 12.1261 8.14905 12.2098 8.21751 12.2825C8.29041 12.3487 8.37412 12.402 8.46501 12.44C8.55478 12.4797 8.65185 12.5002 8.75001 12.5002C8.84816 12.5002 8.94523 12.4797 9.03501 12.44C9.12589 12.402 9.20961 12.3487 9.28251 12.2825C9.35202 12.2124 9.40701 12.1293 9.44433 12.0379C9.48166 11.9465 9.50058 11.8487 9.50001 11.75C9.49724 11.5514 9.41956 11.3612 9.28251 11.2175C9.24687 11.1852 9.2093 11.1552 9.17001 11.1275ZM9.27501 8.21749C9.18743 8.13221 9.08034 8.06962 8.96305 8.03518C8.84576 8.00074 8.72183 7.99549 8.60205 8.01989C8.48227 8.04429 8.37026 8.0976 8.27579 8.17518C8.18132 8.25275 8.10724 8.35224 8.06001 8.46499C8.01333 8.57861 7.99527 8.70196 8.00742 8.8242C8.01957 8.94644 8.06156 9.06382 8.1297 9.16603C8.19784 9.26823 8.29004 9.35214 8.3982 9.41037C8.50636 9.4686 8.62717 9.49938 8.75001 9.49999C8.94892 9.49999 9.13968 9.42097 9.28034 9.28032C9.42099 9.13967 9.50001 8.9489 9.50001 8.74999C9.49882 8.65198 9.47844 8.55516 9.44001 8.46499C9.40387 8.37136 9.34753 8.28686 9.27501 8.21749Z" fill="#DC2921"/>
</svg>
