<svg width="12" height="16" viewBox="0 0 12 16" fill="none" xmlns="http://www.w3.org/2000/svg">
<path d="M10.5 5.375H9.75V3.875C9.75 1.805 8.07 0.125 6 0.125C3.93 0.125 2.25 1.805 2.25 3.875V5.375H1.5C0.675 5.375 0 6.05 0 6.875V14.375C0 15.2 0.675 15.875 1.5 15.875H10.5C11.325 15.875 12 15.2 12 14.375V6.875C12 6.05 11.325 5.375 10.5 5.375ZM3.75 3.875C3.75 2.63 4.755 1.625 6 1.625C7.245 1.625 8.25 2.63 8.25 3.875V5.375H3.75V3.875ZM10.5 14.375H1.5V6.875H10.5V14.375ZM6 12.125C6.825 12.125 7.5 11.45 7.5 10.625C7.5 9.8 6.825 9.125 6 9.125C5.175 9.125 4.5 9.8 4.5 10.625C4.5 11.45 5.175 12.125 6 12.125Z" fill="#F68B2B"/>
</svg>
