<svg width="18" height="15" viewBox="0 0 18 15" fill="none" xmlns="http://www.w3.org/2000/svg">
<path d="M16.5 2.625H13.02L12.525 1.14375C12.4472 0.923708 12.3029 0.73331 12.1121 0.598931C11.9213 0.464553 11.6934 0.392846 11.46 0.393746H1.5C1.20485 0.393705 0.921509 0.509654 0.711061 0.716595C0.500614 0.923535 0.379919 1.20489 0.375 1.5V13.5C0.375 13.7984 0.493526 14.0845 0.704505 14.2955C0.915483 14.5065 1.20163 14.625 1.5 14.625H16.5C16.7984 14.625 17.0845 14.5065 17.2955 14.2955C17.5065 14.0845 17.625 13.7984 17.625 13.5V3.75C17.625 3.45163 17.5065 3.16548 17.2955 2.9545C17.0845 2.74352 16.7984 2.625 16.5 2.625ZM11.8162 1.38L12.2288 2.625H7.02L6.52125 1.125H11.46C11.5386 1.12479 11.6153 1.1493 11.6792 1.19506C11.7432 1.24082 11.7911 1.30551 11.8162 1.38ZM16.875 13.5C16.875 13.5995 16.8355 13.6948 16.7652 13.7652C16.6948 13.8355 16.5995 13.875 16.5 13.875H1.5C1.40054 13.875 1.30516 13.8355 1.23483 13.7652C1.16451 13.6948 1.125 13.5995 1.125 13.5V1.5C1.125 1.40054 1.16451 1.30516 1.23483 1.23483C1.30516 1.16451 1.40054 1.125 1.5 1.125H5.46C5.53908 1.12505 5.61612 1.15011 5.6801 1.19658C5.74408 1.24305 5.79174 1.30856 5.81625 1.38375C6.4125 3.1725 6.39 3.1575 6.4725 3.25875C6.54597 3.3327 6.64576 3.37451 6.75 3.375H16.5C16.5995 3.375 16.6948 3.41451 16.7652 3.48483C16.8355 3.55516 16.875 3.65054 16.875 3.75V13.5Z" fill="#684A8C"/>
</svg>
