<svg xmlns="http://www.w3.org/2000/svg" width="16" height="16" viewBox="0 0 16 16"><g transform="translate(0 0)"><path d="M-918,153h-12v-2.5h-3a.947.947,0,0,1-1-1v-6a.947.947,0,0,1,1-1h3V137h8.5l3.5,3v13Zm-11.5-2.5v2h11v-12h-3v-3h-8v5h8.5a.947.947,0,0,1,1,1v6a.947.947,0,0,1-1,1Zm5.1-6.1v4.3h.8v-1.8h1.5v-.6h-1.5V145h1.9v-.6h-2.7Zm-4.2,0v4.3h1.3a1.977,1.977,0,0,0,2.2-2.1v-.1a1.977,1.977,0,0,0-2.2-2.1h-1.3Zm-3.7,0v4.2h.8V147h.6c1,0,1.6-.486,1.6-1.3,0-.863-.538-1.3-1.6-1.3h-1.4Zm4.9,3.6h-.4v-3h.4c.969,0,1.4.463,1.4,1.5C-926,147.481-926.484,148-927.4,148Zm-3.5-1.5h-.6V145h.6c.538,0,.8.229.8.7A.792.792,0,0,1-930.9,146.5Z" transform="translate(934 -137)" fill="#fff"/></g></svg>